<svg height="512" viewBox="0 0 61 60" width="512" xmlns="http://www.w3.org/2000/svg"><g id="Page-1" fill="none" fill-rule="evenodd"><g id="002---Party-Popper" fill-rule="nonzero" transform="translate(-1)"><path id="Shape" d="m5.61 60c-1.64081965-.0447945-3.19544124-.7445003-4.317-1.943-.25995658-.2510745-.3642126-.6228779-.27269716-.9725073.09151544-.3496295.3645604-.6226744.71418984-.7141899.34962943-.0915154.72143285.0127406.97250732.2726972.99087039 1.2296975 2.66309344 1.6776722 4.136 1.108 1.07534767-.399809 1.82767044-1.378955 1.937-2.521 0-4.074 1.4-6.883 4.157-8.349.4879436-.2590215 1.0934785-.0734436 1.3525.4145s.0734436 1.0934785-.4145 1.3525c-2.083 1.106-3.1 3.259-3.1 6.582-.1081728 1.951393-1.34623854 3.6597439-3.167 4.37-.63297932.2641998-1.31209599.4001591-1.998.4z" fill="#a59078"/><path id="Shape" d="m17.525 55.085-11.61-11.61c-.75435054-.747602-.7981223-1.9526384-.1-2.753l18.548-21.05c.3692778-.4142773.8934763-.6573446 1.4482645-.6715506.5547882-.0142059 1.0907396.2017153 1.4807355.5965506l14.108 14.111c.3948353.3899959.6107565.9259473.5965506 1.4807355-.014206.5547882-.2572733 1.0789867-.6715506 1.4482645l-21.047 18.548c-.8003616.6981223-2.005398.6543505-2.753-.1z" fill="#e64c3c"/><path id="Shape" d="m11.155 34.657c.452 3.309 2.312 11.193 10.026 19.742l5.339-4.716c-5.1683705-6.131453-8.5081827-13.5928387-9.638-21.532z" fill="#f0c419"/><path id="Shape" d="m41.579 23.821c-1.5416042.0026714-3.0207139-.6091258-4.11-1.7-.3789722-.3923789-.3735524-1.0160848.0121814-1.4018186s1.0094397-.3911536 1.4018186-.0121814c.9630094.9630094 2.3666262 1.3391074 3.6821215.9866215s2.3430141-1.3800047 2.6955-2.6955-.0236121-2.7191121-.9866215-3.6821215c-1.4946211-1.4627047-2.0880088-3.6157033-1.5537731-5.63758108.5342357-2.02187772 2.113687-3.60075251 4.1357596-4.13425004 2.0220727-.53349754 4.1748545.06067614 5.6370135 1.55583112.9630094.96300944 2.3666262 1.33910745 3.6821215.98662155 1.3154953-.35248589 2.3430142-1.38000471 2.6955001-2.69550004.3524859-1.31549532-.0236122-2.71911212-.9866216-3.68212151-.3910176-.3910176-.3910176-1.0249824 0-1.416s1.0249824-.3910176 1.416 0c1.4927031 1.46320575 2.0847195 3.61527154 1.5504425 5.63608366s-2.1125467 3.59908185-4.1333588 4.13335884c-2.0208122.534277-4.1728779-.0577394-5.6360837-1.5504425-1.4940737-1.45490703-3.8799403-1.43917452-5.3546975.03530913-1.4747572 1.47448367-1.4909323 3.86034727-.0363025 5.35469087 1.6622474 1.6616731 2.1596041 4.1611594 1.2600801 6.3325829-.8995241 2.1714235-3.0187135 3.5869913-5.3690801 3.5864171z" fill="#f0c419"/><g fill="#ff5364"><path id="Shape" d="m38 6c-.5522847 0-1-.44771525-1-1v-4c0-.55228475.4477153-1 1-1s1 .44771525 1 1v4c0 .55228475-.4477153 1-1 1z"/><path id="Shape" d="m60 17h-4c-.5522847 0-1-.4477153-1-1s.4477153-1 1-1h4c.5522847 0 1 .4477153 1 1s-.4477153 1-1 1z"/><path id="Shape" d="m28 12c-.3808256.0020788-.7297741-.2123306-.9-.553l-2-4c-.2468713-.49429485-.0462949-1.09512872.448-1.342s1.0951287-.04629485 1.342.448l2 4c.1545455.3092668.1383796.6764236-.0427493.9709106-.1811288.294487-.5015228.4745236-.8472507.4760894z"/><path id="Shape" d="m54 34c-.0822727.0003241-.1642562-.0097558-.244-.03l-4-1c-.348821-.0847423-.6254598-.3499483-.7248402-.6948844-.0993804-.344936-.0062538-.7166761.2440075-.9740215.2502612-.2573454.6192576-.3608098.9668327-.2710941l4 1c.4895717.1226969.8109744.5909795.7494367 1.0919267-.0615377.5009473-.4867242.8775169-.9914367.8780733z"/></g><circle id="Oval" cx="54" cy="23" fill="#955ba5" r="2"/><circle id="Oval" cx="34" cy="15" fill="#955ba5" r="2"/><circle id="Oval" cx="45" cy="29" fill="#2fa8cc" r="1"/><circle id="Oval" cx="50" cy="13" fill="#2fa8cc" r="1"/><circle id="Oval" cx="51" cy="2" fill="#2fa8cc" r="1"/><circle id="Oval" cx="33" cy="6" fill="#2fa8cc" r="1"/><path id="Shape" d="m39.23 38.49-5.31 4.68c-10.07-10.71-10.82-20.57-10.88-22l1.32-1.5c.3703168-.4133949.8950162-.6553667 1.4498623-.6686224.554846-.0132557 1.090502.2033834 1.4801377.5986224l3.1 3.1c1.7699816 5.8407361 4.7860092 11.2279619 8.84 15.79z" fill="#f0c419"/></g></g></svg>